<svg width="30" height="30" viewBox="0 0 30 30" fill="none" xmlns="http://www.w3.org/2000/svg">
<path fill-rule="evenodd" clip-rule="evenodd" d="M17.0225 0.0639144C22.4228 0.738312 27.0105 4.2313 28.9965 9.18067C29.7814 11.1367 30.1382 13.4567 29.9511 15.3883C29.6319 18.6853 28.2952 21.5562 25.9629 23.9543C25.6458 24.2804 25.3675 24.6204 25.3444 24.7097C25.3214 24.7992 25.4618 25.6959 25.6564 26.7023C26.0521 28.748 26.0526 28.9497 25.6646 29.4717C25.3839 29.8492 25.0323 30 24.4324 30H23.9407L21.8897 28.9221C20.7617 28.3292 19.7586 27.8442 19.6606 27.8442C19.5627 27.8442 19.1898 27.9179 18.832 28.0082C17.3815 28.3738 16.9028 28.4241 14.8804 28.4235C12.8573 28.423 12.473 28.382 11.0075 28.011C4.59649 26.3879 0.00372576 20.6358 3.28396e-06 14.2248C-0.00421084 7.0698 5.61448 0.956427 13.0173 0.0614504C13.705 -0.0217029 16.3502 -0.0200602 17.0225 0.0639144ZM20.2359 12.9811C19.4001 13.3491 18.9788 14.2319 19.2326 15.0827C19.382 15.5833 19.9186 16.1341 20.3891 16.2696C21.5935 16.6168 22.7818 15.8109 22.7818 14.6471C22.7818 14.0642 22.6535 13.7531 22.2494 13.357C21.6738 12.7927 20.9642 12.6603 20.2359 12.9811ZM14.1371 13.0369C13.6962 13.2706 13.408 13.5998 13.2574 14.0416C12.9716 14.88 13.4102 15.8482 14.2426 16.2166C14.6242 16.3854 15.3452 16.3863 15.7247 16.2184C16.7818 15.7505 17.1358 14.4181 16.4392 13.5283C15.8786 12.812 14.9391 12.6115 14.1371 13.0369ZM8.48107 12.8887C7.42368 13.1947 6.87935 14.4126 7.37065 15.3732C7.94981 16.5058 9.49281 16.6975 10.3542 15.744C10.9903 15.0398 10.96 14.0084 10.2839 13.3495C9.77024 12.8489 9.15863 12.6927 8.48107 12.8887Z" fill="#017DF8"/>
</svg>
